<svg version="1.1" viewBox="0 0 22.213 22.213"
    xmlns="http://www.w3.org/2000/svg">
    <style>
        circle {
            fill: #ffa01c;
        }

        path {
            fill: #fff;
            stroke: #fff;
        }

        @media (prefers-color-scheme: dark) {
            circle {
                fill: #ffcb47;
            }

            path {
                fill: #151718;
                stroke: #151718;
            }
        }
    </style>
    <g transform="translate(-36.157 -88.703)">
        <circle id="favicon-background" cx="47.263" cy="99.809" r="11.106" stroke-linecap="round" stroke-width=".265"/>
        <path id="favicon-path" d="m42.148 92.917c-.19143 0-.45702.08109-.62076.24518-.16374.16409-.24721.34493-.35349.5852-.36067.81535-.59733 2.0485-.70536 3.4745-.04324.57068-.19497 1.4906-.31684 1.9426-.40195 1.4906-.31058 2.9808.30822 4.1395.7971 1.4925 2.4289 2.6326 4.3653 3.1297.62887.16143 1.5534.2478 2.4281.26727l.01022.00056.0097-.00056c.8747-.0194 1.7992-.10584 2.4281-.26727 1.9364-.49709 3.5682-1.6372 4.3652-3.1297.61881-1.1587.71018-2.6489.30823-4.1395-.12183-.45196-.27357-1.3719-.3168-1.9426-.10803-1.426-.34415-2.6592-.70482-3.4745-.10628-.24026-.19029-.42111-.35403-.5852-.16374-.16409-.42932-.24518-.62076-.24518-.24237 0-.37191.079-.54155.16812-.16964.08913-.35366.20699-.55556.35026-.4038.28654-.87382.67432-1.3417 1.1143-.09717.09137-.16193.1494-.18914.16866-.02721.01927-.003.0064-.0075.007-.0094.0012-.21243-.02141-.64662-.12016-.5887-.1339-1.2085-.19839-1.8321-.19722h-.0017c-.62364-.0011-1.2434.06331-1.8321.19722-.4342.09875-.63725.12142-.64662.12016-.0047-.000647.02021.01225-.007-.007-.02723-.01927-.09252-.07729-.18969-.16866-.46799-.44003-.93747-.82781-1.3413-1.1143-.2019-.14327-.38646-.26113-.55609-.35026-.16964-.08913-.29918-.16812-.54155-.16812zm.01022.91821c-.05719.000836.0021.0026.10669.05766.11482.06032.27343.1595.45264.28667.35843.25434.80386.62103 1.2442 1.0351.09717.09138.17796.17106.2872.24841.10925.07735.2614.14614.41384.16651.30489.04072.53576-.03596.96994-.13471.51587-.11734 1.07-.17574 1.6295-.17459h.001788c.55949-.0011 1.1136.05725 1.6295.17459.43418.09875.66558.17543.97047.13471.15244-.02036.30405-.08916.4133-.16651.10925-.07735.19004-.15703.28721-.24841.44036-.41411.88632-.78079 1.2448-1.0351.17922-.12717.33728-.22635.4521-.28667.10482-.05507.16387-.05681.10669-.05766.01351.01865.06648.09168.15034.28128.27721.62669.52685 1.8139.62992 3.1744.04922.64972.19572 1.5541.34595 2.1112.35242 1.3069.24838 2.5719-.23225 3.4718-.64042 1.1991-2.061 2.2327-3.7876 2.676-.48354.12413-1.3903.2187-2.2115.23764-.82101-.019-1.7275-.11354-2.2109-.23764-1.7266-.44324-3.1466-1.4768-3.787-2.676-.48062-.89993-.58466-2.165-.23225-3.4718.15023-.5571.29619-1.4615.34541-2.1112.10307-1.3605.3527-2.5477.62992-3.1744.08387-.1896.13687-.26263.15034-.28128z" fill="#fff" stroke="#fff" stroke-width=".79375"/>
    </g>
</svg>
